<svg version="1" xmlns="http://www.w3.org/2000/svg" width="933.333" height="933.333" viewBox="0 0 700.000000 700.000000"><path d="M315.1 1.6c-6.8.7-13.8 1.6-15.5 1.9-1.7.3-4.9.8-7.1 1.1-2.2.3-6 1-8.5 1.6-2.5.5-5.8 1.2-7.5 1.5-1.6.2-8.8 1.9-16 3.8-47.3 12.3-91.7 34.7-131 66.2-18 14.4-46.8 44-58 59.7-1.1 1.6-2.9 4-4.1 5.5-3.9 5-13.4 19.3-13.4 20.2 0 .5-.4.9-1 .9-.5 0-1 .4-1 1 0 .5-1.9 4-4.1 7.7-6.5 10.6-16.4 30.8-22.5 46-3.1 7.6-5.7 14.2-5.8 14.8-.2.5-.6 1.7-.9 2.5-4.6 11.7-13 46.4-15.1 63-2.2 16.2-2.5 19.6-3.1 31L0 340.6l14.5 4.3c12.4 3.6 53.4 14.2 60.2 15.5 1.3.3 5.8 1.2 10 2 4.3.9 8.9 1.8 10.3 2.1 1.4.3 4.8.9 7.5 1.5 6.5 1.3 10 1.9 15.5 2.6 2.5.3 4.7.8 5 .9.3.2 3.3.7 6.5 1 3.3.4 6.9.9 8 1.1 1.7.4 5.9.9 22.5 2.8 1.9.3 6.4.7 10 1.1 3.6.3 7.9.7 9.5.9 1.7.2 8.1.7 14.3 1.1l11.2.6v-47.3c.1-69 .1-100.1 0-102.1 0-1.6-2.6-1.7-40.1-1.7-24.2 0-40.8-.4-41.9-1-1-.5-2.2-2.2-2.7-3.7-1.3-4-.6-61.8.7-64.4.6-1.1 2-2.3 3-2.7 1.1-.4 19.7-.7 41.5-.7H205v-29.1c0-31.5.4-34.7 4.8-36.1 3.2-1 59.5-1 63.3 0 1.5.4 3 1.5 3.5 2.4.4 1 .9 14.8 1 30.8.1 15.9.3 29.7.3 30.5.1 1.4 4.8 1.5 39.4 1.5 40.5-.1 43.6.1 45 3.9.3.8.7 15.5.8 32.6.2 30.5.1 31.1-1.9 33.3l-2.2 2.3h-40.1c-23.4-.1-40.3.3-40.7.8-.3.5-.6 34.4-.6 75.3l-.1 74.4 7-.6c15.7-1.3 26.5-2.5 28.5-3 .8-.2 3.8-.7 6.5-1 2.8-.3 6.1-.7 7.5-1 1.4-.2 4.1-.7 6-.9 4.6-.7 8.3-1.4 15-2.7 3-.7 6-1.2 6.5-1.3 12.9-2.6 36.2-8.6 49-12.6 5.5-1.7 10.5-3.3 11-3.4.6-.2 1.7-.5 2.5-.9.8-.3 6.2-2.2 12-4.2 13.8-4.9 36.1-14.1 48.3-20l9.7-4.7v-25.2c0-14 .4-25.8 1-26.6.8-1.3 5.1-1.5 28-1.5 20.1-.1 27.6.3 28.9 1.2 1.5 1 1.8 2.5 1.6 9-.1 4.3 0 8.1.2 8.6 1 1.8 47.6-31.9 81.8-59.2 9.4-7.5 21.4-16.9 26.8-21 5.3-4.1 9.7-7.7 9.7-8 0-.3-1.5-3.5-3.3-7.1-20.5-40.8-51.1-79.4-86.2-108.5-3.3-2.8-6.2-5.3-6.5-5.6-.8-.9-19-14.3-23.9-17.5-2.4-1.6-5.4-3.6-6.7-4.4-6.5-4.4-25.3-14.9-35.9-20C472.3 20.3 437.3 9.2 406 4.5c-2.5-.4-5.2-.9-6-1-2.2-.4-10.7-1.5-16.5-2.1-11.2-1.3-56.3-1.1-68.4.2z"/><path d="M685.5 291.1c-23.4 17.6-45 30.6-76 45.9-13.2 6.5-31.6 14.8-41 18.5-9.3 3.6-18 7-19.2 7.5-2.3.9-2.3 1.2-2.3 19.9 0 17.1.2 19.1 1.8 19.9.9.4 28 .8 60.1.8 41.8-.1 58.5.2 58.8 1 .8 2.2-14 37.1-25.8 60.6-30.5 60.9-65.3 99-111.5 122.2-14.9 7.4-38.4 15.6-53.4 18.5-3 .6-6.4 1.2-7.5 1.4-1.1.3-4.2.8-6.8 1.1-2.7.4-5.8.9-6.9 1.1-1.8.4-9.5 1.2-19.8 2.1-5.6.5-44.6.5-48-.1-1.4-.2-4.7-.4-7.3-.4l-4.8-.1 6.8-5.8c24.9-21 44-46.3 61.4-81.2 13.3-26.6 24.4-57.3 31.4-86.8.3-.9.9-3.5 1.4-5.7.6-2.2 1.2-5.4 1.5-7 .3-1.7.8-3.9 1-5 1.3-6.5 3.6-19.6 4.1-23.5.3-2.5.8-6.3 1.1-8.4l.6-3.9-3.3.6c-1.9.4-7.2 1.6-11.9 2.7-10.5 2.5-21.7 5-25 5.6-1.4.2-4.7.9-7.5 1.4-2.7.5-6.6 1.2-8.5 1.5-1.9.3-4.2.8-5 1-.8.2-3.1.7-5 1-1.9.3-4.2.8-5 1-1.4.3-7.9 1.3-14 2-5.6.7-12.8 1.7-18 2.5-6 1-10.9 1.6-21.5 2.5-3.8.3-8.6.8-10.5 1-3.4.5-12.2 1.3-22.5 2-27.1 2-91.3 2.7-114 1.1-6-.4-14.4-.9-18.5-1.2-4.1-.3-9.1-.7-11-.9-1.9-.2-7.1-.6-11.5-1-4.4-.3-8.7-.8-9.5-1-.8-.2-4-.6-7.1-1-3.1-.3-6.5-.7-7.5-.9-1.1-.2-4.4-.7-7.4-1-4.6-.6-15.2-2.4-23.5-4-1.1-.2-4-.7-6.5-1.1-2.5-.4-7-1.3-10-2-3-.8-6.6-1.6-8-1.9-28.4-5.3-69.9-20.9-87.2-32.7L0 357l.5 10.3c.6 11.6 1 16.6 3.1 31.9.8 6.8 1.3 9.8 2.9 17.8.9 4.1 1.7 8.4 1.9 9.5 1.7 8.4 9.1 34.2 11.5 40 .5 1.1 2.5 6.5 4.6 12 4.5 12 15.7 35.4 22 46 2.5 4.2 4.5 7.8 4.5 8 0 1.3 20.6 30.4 26.3 37.2 35.3 42.2 68.7 69.1 116.2 93.6 6.7 3.4 20.5 9.7 21.4 9.7.4 0 2.6.9 4.8 2 4.2 2 31.6 11.4 36.3 12.4 1.4.3 6.1 1.5 10.5 2.6s9.4 2.2 11 2.5c2.5.4 5.8 1.1 9.5 2 .3.1 3 .5 6 .9 3 .5 6.2.9 7 1.1 13.3 2.2 24 2.9 48.5 2.9 21.9.1 39.7-.7 44.5-1.9.8-.2 3.5-.6 6-.9 6-.8 19.3-3.1 24-4.2 1.4-.3 3.6-.8 5-1 10.3-1.9 33.1-9 51.5-16.1 29.7-11.5 68.5-33.9 90-52 1.1-1 4.9-4.2 8.5-7.2 6.5-5.3 27.9-26.5 35.5-35.1 5.1-5.8 17.1-21 21.6-27.5 1.9-2.7 3.8-5.4 4.3-6 1.8-2.2 11.8-18.4 15.1-24.5 1.9-3.6 4.1-7.6 4.9-9 12.6-21.1 29.4-69.2 34.1-97.5.3-1.7 1-5.3 1.5-8 5.4-28.7 6-81.7 1.4-107.5-.4-1.9-.8-4.6-1-6-.2-1.4-.7-4.2-1.1-6.2l-.8-3.7-8 6z"/></svg>