<svg xmlns="http://www.w3.org/2000/svg" viewBox="0 0 212.46 212.489"><defs><style>.a{fill:#fff;}</style></defs><path class="a" d="M25.344,37.232a106.445,106.445,0,0,1,149.9-11.808,104.581,104.581,0,0,1,26.784,34.848c-8.424,5.976-20.016,16.7-36.072,27V82.3a1.03,1.03,0,0,0-1.008-1.008H148.968A.984.984,0,0,0,147.96,82.3V97.5A166.057,166.057,0,0,1,84.312,114.56V68.84h23.976a2.076,2.076,0,0,0,2.016-2.088l-.144-17.784a2.09,2.09,0,0,0-2.088-2.088H84.312V28.952a2.09,2.09,0,0,0-2.088-2.088H64.44a2.09,2.09,0,0,0-2.088,2.088V46.88H38.592A2.09,2.09,0,0,0,36.5,48.968L36.36,66.752a2.029,2.029,0,0,0,2.016,2.088H62.352v45.936C43.776,113.912,23.04,110.456,0,103.4A105.469,105.469,0,0,1,25.344,37.232ZM210.6,86.48c-13.032,10.3-28.368,18.144-44.64,24.048v10.656a1.24,1.24,0,0,0,1.224,1.3h35.28c.36,0,.5.216.432.5-13.968,35.784-32.616,67.176-88.776,62.352,20.16-14.976,30.456-45.648,33.192-69.048C87.7,131.84,20.952,123.992,0,108.368a105.983,105.983,0,0,0,37.152,78.7c44.568,38.088,111.96,32.76,149.976-11.808A106.135,106.135,0,0,0,210.6,86.48Z"/><path class="a" d="M61.344,144.368,53.5,158.048l7.848,17.064H51.408l-6.336-15.12v15.12H36.288V144.368h8.784V156.9l6.336-12.528Zm9.864,0v24.048h10.08v6.7H62.424V144.368Zm21.744,0H84.1v26.784a19.86,19.86,0,0,1-.144,3.168,3.8,3.8,0,0,1-1.008,2.088,3.234,3.234,0,0,1-2.52.864,1.238,1.238,0,0,1-.576-.072l2.3,7.776h.432a.783.783,0,0,0,.36.072,12.065,12.065,0,0,0,5.328-1.224,8.848,8.848,0,0,0,3.672-3.6,9.354,9.354,0,0,0,.792-3.1,29.621,29.621,0,0,0,.216-3.96v-28.8Zm2.88,0H106.7a17.889,17.889,0,0,1,6.912,1.008,6.349,6.349,0,0,1,2.952,2.88,9.075,9.075,0,0,1,1.008,4.32,7.01,7.01,0,0,1-3.672,6.408,7.486,7.486,0,0,1,4.536,7.272,8.933,8.933,0,0,1-1.3,4.608,7.362,7.362,0,0,1-3.384,3.24,9.761,9.761,0,0,1-3.168.792,34.53,34.53,0,0,1-4.248.216H95.832V144.368Zm8.784,6.12v6.264l.648.072a4.859,4.859,0,0,0,2.808-.72,3.3,3.3,0,0,0,.864-2.592c0-1.224-.288-2.088-.864-2.448a4.927,4.927,0,0,0-2.88-.576Zm0,11.808v6.768h.792a4.455,4.455,0,0,0,2.808-.648,3.163,3.163,0,0,0,1.152-2.736,3.048,3.048,0,0,0-1.512-3.024,5.626,5.626,0,0,0-2.3-.36Z"/></svg>
